<svg width="70" height="70" viewBox="0 0 70 70" fill="none" xmlns="http://www.w3.org/2000/svg">
<path d="M57.3183 33.605C57.3183 18.1995 47.3249 2.91667 34.9994 2.91667C22.6739 2.91667 12.6807 18.1995 12.6807 33.605" fill="#FFBC44"/>
<path d="M34.9994 13.1024C44.5547 13.1024 52.6872 22.3089 55.8676 33.605H57.3183C57.3183 18.1995 47.3249 2.91667 34.9994 2.91667C22.6739 2.91667 12.6807 18.1995 12.6807 33.605H14.1314C17.3118 22.2978 25.4442 13.1024 34.9994 13.1024Z" fill="#FFDDA1"/>
<path d="M57.3183 33.605C57.3183 18.1995 47.3249 2.91667 34.9994 2.91667C22.6739 2.91667 12.6807 18.1995 12.6807 33.605" stroke="#191919" stroke-linecap="round" stroke-linejoin="round"/>
<path d="M34.9982 10.2539C32.8277 10.4506 30.7437 11.1997 28.9446 12.4298C27.1455 13.66 25.6913 15.3303 24.7205 17.2815" stroke="#191919" stroke-linecap="round" stroke-linejoin="round"/>
<path d="M60.1081 39.1848H9.89075C11.1825 47.0158 14.6726 55.8151 21.4184 60.9455C20.3893 62.8667 19.6691 64.9381 19.2842 67.0833H50.7147C50.3297 64.9381 49.6096 62.8667 48.5806 60.9455C55.3263 55.8151 58.8163 47.0158 60.1081 39.1848Z" fill="#FFF9BF"/>
<path d="M59.9932 39.765C57.7989 44.55 54.2777 48.6048 49.8469 51.4471C45.4162 54.2897 40.2628 55.8005 34.9991 55.8005C29.7351 55.8005 24.5815 54.2897 20.1509 51.4471C15.7203 48.6048 12.1988 44.55 10.0046 39.765C11.3717 47.4483 14.8367 55.9463 21.4179 60.9455C20.3888 62.8667 19.6686 64.9381 19.2837 67.0833H50.7141C50.3291 64.9381 49.6092 62.8667 48.5799 60.9455C55.1611 55.9405 58.6261 47.4483 59.9932 39.765Z" fill="#FFEF5E"/>
<path d="M60.1081 39.1848H9.89075C11.1825 47.0158 14.6726 55.8151 21.4184 60.9455C20.3893 62.8667 19.6691 64.9381 19.2842 67.0833H50.7147C50.3297 64.9381 49.6096 62.8667 48.5806 60.9455C55.3263 55.8151 58.8163 47.0158 60.1081 39.1848Z" stroke="#191919" stroke-linecap="round" stroke-linejoin="round"/>
</svg>
